<svg xmlns="http://www.w3.org/2000/svg" width="256" height="256" viewBox="0 0 100 100"><rect width="100" height="100" rx="20" fill="#384561"></rect><path d="M32.39 59.59L32.39 59.59Q32.39 65.89 28.89 68.94Q25.39 71.98 19.65 71.98L19.65 71.98Q15.80 71.98 13.56 70.83Q11.32 69.67 11.32 67.08L11.32 67.08Q11.32 65.89 11.71 65.05Q12.09 64.21 12.58 63.65L12.58 63.65Q13.77 64 14.96 64.28Q16.15 64.56 17.55 64.56L17.55 64.56Q23.29 64.56 23.29 58.61L23.29 58.61L23.29 28.58Q23.92 28.44 25.11 28.23Q26.30 28.02 27.49 28.02L27.49 28.02Q30.01 28.02 31.20 28.93Q32.39 29.84 32.39 32.29L32.39 32.29L32.39 59.59ZM69.84 60.36L69.84 60.36Q69.14 60.92 68.03 61.27Q66.91 61.62 65.44 61.62L65.44 61.62Q63.61 61.62 62.39 61.17Q61.16 60.71 60.67 59.52L60.67 59.52Q57.80 52.38 55.84 47.34Q53.88 42.30 52.69 38.73L52.69 38.73L52.34 38.73Q52.13 43.42 51.96 47.34Q51.78 51.26 51.64 55.01Q51.50 58.75 51.33 62.60Q51.16 66.45 50.88 70.93L50.88 70.93Q50.17 71.14 49.13 71.35Q48.07 71.56 46.88 71.56L46.88 71.56Q42.19 71.56 42.19 68.06L42.19 68.06Q42.19 66.94 42.30 64.60Q42.40 62.25 42.58 59.14Q42.75 56.02 43 52.31Q43.24 48.60 43.49 44.82Q43.73 41.04 44.02 37.37Q44.29 33.69 44.50 30.54L44.50 30.54Q45.06 29.84 46.57 29.11Q48.07 28.37 50.45 28.37L50.45 28.37Q53.11 28.37 54.76 29.25Q56.41 30.12 57.24 32.15L57.24 32.15Q58.16 34.32 59.17 36.91Q60.19 39.50 61.23 42.23Q62.28 44.96 63.30 47.59Q64.31 50.21 65.22 52.52L65.22 52.52L65.50 52.52Q67.88 45.94 70.23 39.78Q72.58 33.62 74.33 29.35L74.33 29.35Q75.16 28.93 76.50 28.65Q77.83 28.37 79.22 28.37L79.22 28.37Q81.81 28.37 83.35 29.14Q84.90 29.91 85.25 31.45L85.25 31.45Q85.53 32.78 85.88 35.69Q86.22 38.59 86.58 42.30Q86.92 46.01 87.28 50.21Q87.63 54.41 87.91 58.30Q88.19 62.18 88.40 65.40Q88.61 68.62 88.68 70.44L88.68 70.44Q87.77 71.00 86.75 71.28Q85.73 71.56 84.27 71.56L84.27 71.56Q82.44 71.56 81.08 70.83Q79.72 70.09 79.58 68.06L79.58 68.06Q79.30 63.65 79.09 59.42Q78.88 55.18 78.73 51.40Q78.59 47.62 78.45 44.44Q78.31 41.25 78.25 38.94L78.25 38.94L77.90 38.94Q76.78 42.23 74.81 47.31Q72.85 52.38 69.84 60.36Z" fill="#f9f9f9"></path></svg>